<?xml version="1.0" encoding="UTF-8"?>
<svg id="Layer_2" data-name="Layer 2" xmlns="http://www.w3.org/2000/svg" version="1.1" viewBox="0 0 399.5 127.2">
  <defs>
    <style>
      .cls-1 {
        fill: #000;
      }

      .cls-1, .cls-2 {
        stroke-width: 0px;
      }

      .cls-2 {
        fill: #e7c39c;
      }
    </style>
  </defs>
  <g id="Camada_2" data-name="Camada 2">
    <g>
      <g>
        <path class="cls-1" d="M26.5,24.3c-.8-1.1-2-1.8-3.4-2.3s-2.8-.8-4.1-.8-1.5.1-2.3.3c-.8.2-1.5.5-2.2.8-.7.4-1.3.9-1.7,1.5s-.7,1.4-.7,2.2c0,1.4.5,2.5,1.6,3.2s2.4,1.4,4,1.9,3.3,1.1,5.2,1.6c1.8.5,3.6,1.3,5.2,2.2,1.6,1,2.9,2.3,4,3.9,1.1,1.6,1.6,3.8,1.6,6.5s-.5,4.9-1.5,6.8-2.3,3.5-3.9,4.8-3.6,2.2-5.7,2.8c-2.2.6-4.5.9-6.9.9s-5.8-.5-8.4-1.4C4.7,58.3,2.3,56.8,0,54.7l7.3-8c1.1,1.4,2.4,2.5,4,3.3s3.3,1.2,5,1.2,1.7,0,2.5-.3c.9-.2,1.6-.5,2.3-.9s1.2-.9,1.6-1.5.6-1.3.6-2.2c0-1.4-.5-2.5-1.6-3.3s-2.4-1.5-4.1-2.1c-1.6-.6-3.4-1.1-5.3-1.7-1.9-.6-3.7-1.3-5.3-2.3s-3-2.2-4.1-3.8c-1.1-1.6-1.6-3.7-1.6-6.3s.5-4.7,1.5-6.6c1-1.9,2.3-3.5,4-4.7,1.6-1.3,3.6-2.2,5.7-2.9,2.2-.6,4.4-1,6.7-1s5.2.4,7.7,1.1,4.7,2,6.7,3.8c0,0-7.1,7.8-7.1,7.8Z"/>
        <path class="cls-1" d="M41.6,12.9h31.7v9.5h-21.4v8.7h20.3v9.5h-20.3v9.5h22.6v9.5h-32.9V12.9h0Z"/>
        <path class="cls-1" d="M113.3,25c-1-1.2-2.3-2.2-3.7-2.8-1.5-.7-3.2-1-5.1-1s-3.7.4-5.4,1.1c-1.6.7-3.1,1.8-4.3,3.1-1.2,1.3-2.2,2.9-2.8,4.8-.7,1.8-1,3.8-1,6s.3,4.2,1,6,1.6,3.4,2.8,4.7c1.2,1.3,2.6,2.4,4.2,3.1s3.3,1.1,5.2,1.1,4-.4,5.6-1.3,3-2.1,4-3.7l8.6,6.4c-2,2.8-4.5,4.8-7.5,6.1s-6.2,2-9.4,2-7-.6-10.1-1.7-5.7-2.8-8-4.9c-2.2-2.1-4-4.7-5.2-7.8-1.3-3-1.9-6.4-1.9-10.2s.6-7.1,1.9-10.2c1.3-3,3-5.6,5.2-7.8,2.2-2.1,4.9-3.8,8-4.9s6.4-1.7,10.1-1.7,2.7.1,4.1.4c1.4.2,2.8.6,4.2,1.2,1.4.5,2.7,1.2,4,2.1s2.4,2,3.4,3.2l-7.9,6.7h0Z"/>
        <path class="cls-1" d="M128,12.9h18.1c2.4,0,4.6.2,6.8.7,2.1.5,4,1.2,5.6,2.3s2.9,2.5,3.8,4.4c.9,1.8,1.4,4.1,1.4,6.8s-.9,6.1-2.6,8.4-4.2,3.8-7.5,4.4l11.9,19.7h-12.3l-9.8-18.7h-5.1v18.7h-10.3V12.9h0ZM138.3,32.2h9c1,0,2-.3,2.8-.6.8-.3,1.5-.8,2.1-1.6.5-.7.8-1.7.8-3s-.2-2.1-.7-2.8c-.5-.7-1.1-1.2-1.8-1.6s-1.6-.6-2.6-.8c-1-.1-1.9-.2-2.8-.2h-6.7v10.7h-.1Z"/>
        <path class="cls-1" d="M171.1,12.9h31.8v9.5h-21.4v8.7h20.3v9.5h-20.3v9.5h22.6v9.5h-32.9V12.9h-.1Z"/>
        <path class="cls-1" d="M221.3,22h-13.3v-9.1h36.9v9.1h-13.3v37.6h-10.3V22h0Z"/>
        <path class="cls-1" d="M259.5,12.9h8.5l20.3,46.7h-11.6l-4-9.9h-18.1l-3.9,9.9h-11.3l20.1-46.7h0ZM263.9,0h13.5l-11.4,9.5h-8.7l6.6-9.5ZM263.4,26.5l-5.7,14.5h11.4l-5.7-14.5h0Z"/>
        <path class="cls-1" d="M293,12.9h18.1c2.4,0,4.6.2,6.8.7,2.1.5,4,1.2,5.6,2.3s2.9,2.5,3.8,4.4c.9,1.8,1.4,4.1,1.4,6.8s-.9,6.1-2.6,8.4c-1.7,2.3-4.2,3.8-7.5,4.4l11.9,19.7h-12.3l-9.8-18.7h-5.1v18.7h-10.3V12.9h0ZM303.3,32.2h9c1,0,2-.3,2.8-.6.8-.3,1.5-.8,2.1-1.6.6-.7.8-1.7.8-3s-.2-2.1-.7-2.8c-.5-.7-1.1-1.2-1.8-1.6s-1.6-.6-2.6-.8c-1-.1-1.9-.2-2.8-.2h-6.7v10.7h-.1,0Z"/>
        <path class="cls-1" d="M335.6,12.9h10.3v46.7h-10.3V12.9Z"/>
        <path class="cls-1" d="M370.6,12.9h8.5l20.3,46.7h-11.5l-4-9.9h-18.1l-3.9,9.9h-11.3s20-46.7,20-46.7ZM374.6,26.5l-5.7,14.5h11.4l-5.7-14.5h0Z"/>
      </g>
      <g>
        <path class="cls-1" d="M264.1,80h13.2c1.6,0,3.2.2,4.8.6,1.6.4,3,1,4.1,1.9s1.9,2.2,2.3,3.7c.4,1.6.1,3.6-.7,5.9-.7,2.1-1.8,3.9-3.1,5.4s-2.7,2.8-4.4,3.7c-1.6,1-3.3,1.7-5.2,2.2-1.8.5-3.7.7-5.5.7h-9.9l-7.7,21.8h-4.3l16.4-45.9h0ZM261.3,100.2h9.7c1.2,0,2.5,0,3.7-.4,1.3-.3,2.5-.7,3.6-1.4,1.1-.6,2.2-1.5,3.1-2.5s1.7-2.3,2.2-3.8.7-2.7.5-3.8c-.2-1-.7-1.9-1.4-2.6-.7-.7-1.6-1.2-2.7-1.5s-2.3-.5-3.5-.5h-9.5l-5.7,16.5h0Z"/>
        <path class="cls-1" d="M300.5,80h4.3l-14.8,42h21.4l-1.3,3.9h-25.7l16.1-45.9Z"/>
        <path class="cls-1" d="M354.7,108.3c-.9,2.5-2,4.8-3.4,7.1-1.4,2.2-3,4.2-4.9,6-1.9,1.7-4.1,3.1-6.7,4.2-2.5,1-5.3,1.6-8.4,1.6s-5.6-.5-7.3-1.6c-1.8-1-3-2.4-3.7-4.2-.7-1.7-1-3.7-.7-6,.2-2.2.8-4.6,1.7-7.1l10-28.4h4.3l-9.6,27.2c-.6,1.6-1,3.4-1.4,5.3s-.4,3.6-.1,5.2,1.1,2.9,2.4,4c1.2,1,3.2,1.6,5.9,1.6s5-.5,7-1.6c2-1,3.7-2.4,5.2-4s2.7-3.3,3.6-5.2c1-1.9,1.7-3.6,2.3-5.3l9.6-27.2h4.3l-10.1,28.4h0Z"/>
        <path class="cls-1" d="M363.5,117.4c.5,1.9,1.4,3.4,2.8,4.3,1.4,1,3.3,1.4,5.6,1.4s2.8-.2,4.3-.6c1.4-.4,2.7-1,3.9-1.8s2.3-1.7,3.2-2.8c.9-1.1,1.6-2.3,2.2-3.7.6-1.6.7-2.9.4-4-.3-1-.9-1.9-1.8-2.6s-1.9-1.2-3.2-1.7-2.5-1-3.8-1.4c-1.3-.5-2.6-1-3.8-1.6s-2.2-1.4-3-2.4-1.2-2.2-1.4-3.7.1-3.3.9-5.4c.7-2,1.8-3.8,3.2-5.4s2.9-2.9,4.7-4c1.7-1.1,3.6-1.9,5.5-2.4,2-.5,3.9-.8,5.8-.8s4.7.4,6.5,1.3,3.1,2.4,4,4.4l-4.7,2.7c-.5-1.5-1.4-2.6-2.6-3.4s-2.8-1.1-4.8-1.1-2.8.2-4.1.6c-1.4.4-2.7.9-3.8,1.6-1.2.7-2.3,1.6-3.2,2.7s-1.7,2.4-2.2,3.8c-.6,1.7-.8,3.1-.5,4.2s.9,2,1.7,2.7,1.9,1.3,3.2,1.8,2.6.9,3.9,1.4,2.6,1,3.8,1.5c1.2.6,2.2,1.3,3,2.2.8.9,1.3,2.1,1.5,3.5s-.1,3.2-.9,5.4c-.7,2.1-1.8,3.9-3.2,5.5s-2.9,3-4.6,4.1-3.5,1.9-5.4,2.5-3.8.8-5.7.8c-3,0-5.6-.5-7.8-1.6s-3.7-2.8-4.6-5.4l5-2.6Z"/>
      </g>
      <polygon class="cls-2" points="227.9 80.4 220 80.4 0 80.4 0 126 203.9 126 223 126 228 111.8 234.1 94.6 239.1 80.4 227.9 80.4"/>
    </g>
  </g>
</svg>
